<?xml version="1.0" encoding="iso-8859-1"?>
<!-- Uploaded to: SVG Repo, www.svgrepo.com, Generator: SVG Repo Mixer Tools -->
<svg fill="#7AA486" height="800px" width="800px" version="1.1" id="Layer_1" xmlns="http://www.w3.org/2000/svg" xmlns:xlink="http://www.w3.org/1999/xlink" 
	 viewBox="0 0 512 512" xml:space="preserve">
<g>
	<g>
		<path d="M486.718,220.584c-16.304-18.982-38.904-31.513-63.641-35.289l-204.06-31.12c-3.497-0.528-7.053,0.484-9.735,2.791
			c-2.683,2.305-4.227,5.666-4.227,9.204v110.517H12.133C5.432,276.686,0,282.119,0,288.818v57.012
			c0,6.7,5.432,12.133,12.133,12.133h487.735c6.701,0,12.133-5.433,12.133-12.133v-57.012
			C512,263.796,503.022,239.563,486.718,220.584z M24.265,333.696V300.95h192.922h201.391c6.701,0,12.133-5.433,12.133-12.133
			s-5.432-12.133-12.133-12.133H229.32v-96.392l31.788,4.848v37.565c0,6.7,5.432,12.133,12.133,12.133
			c6.701,0,12.133-5.433,12.133-12.133v-33.865l26.049,3.972v29.893c0,6.7,5.432,12.133,12.133,12.133
			c6.701,0,12.133-5.433,12.133-12.133v-26.192l83.729,12.768c39.587,6.042,68.318,39.492,68.318,79.535v44.879H24.265z"/>
	</g>
</g>
<g>
	<g>
		<path d="M456.848,276.684c-6.697,0-12.133,5.435-12.133,12.133s5.435,12.133,12.133,12.133c6.697,0,12.133-5.435,12.133-12.133
			S463.546,276.684,456.848,276.684z"/>
	</g>
</g>
</svg>